<?xml version="1.0" standalone="no"?>
<!DOCTYPE svg PUBLIC "-//W3C//DTD SVG 20010904//EN"
 "http://www.w3.org/TR/2001/REC-SVG-20010904/DTD/svg10.dtd">
<svg version="1.0" xmlns="http://www.w3.org/2000/svg"
 width="826.000000pt" height="826.000000pt" viewBox="0 0 826.000000 826.000000"
 preserveAspectRatio="xMidYMid meet">

<g transform="translate(0.000000,826.000000) scale(0.100000,-0.100000)"
fill="#000000" stroke="none">
<path d="M0 4130 l0 -4130 4130 0 4130 0 0 4130 0 4130 -4130 0 -4130 0 0
-4130z m2875 2493 c-23 -60 -119 -414 -149 -553 -28 -131 -86 -435 -109 -577
-3 -16 31 11 118 95 225 217 454 354 761 457 255 85 408 107 764 106 530 -2
955 -40 1420 -127 235 -44 644 -134 823 -181 l137 -36 0 -205 c0 -167 -2 -203
-13 -199 -169 65 -787 211 -1107 262 l-45 8 110 -114 c167 -173 262 -307 356
-504 93 -195 162 -420 194 -640 29 -195 19 -781 -20 -1185 -39 -393 -152 -998
-277 -1472 l-31 -118 -204 0 c-130 0 -203 4 -203 10 0 6 16 63 36 128 60 199
110 406 173 716 34 164 61 301 61 304 0 4 -39 -32 -87 -79 -119 -117 -208
-189 -324 -266 -233 -152 -533 -262 -844 -308 -181 -27 -741 -20 -1130 15
-422 38 -995 144 -1502 277 l-143 37 0 204 c0 190 1 204 18 197 33 -13 318
-94 418 -119 56 -14 236 -53 400 -86 164 -33 310 -62 324 -66 18 -4 3 14 -57
70 -310 288 -526 724 -598 1202 -29 192 -19 767 21 1174 38 393 150 992 275
1466 16 61 29 114 29 118 0 3 93 6 206 6 192 0 206 -1 199 -17z"/>
<path d="M3925 5764 c-355 -52 -639 -186 -893 -420 -260 -240 -429 -538 -499
-879 -26 -129 -26 -521 0 -650 117 -573 547 -1057 1097 -1233 182 -58 251 -67
515 -67 260 1 336 11 520 71 470 155 874 559 1029 1031 53 159 67 254 73 468
6 236 -8 362 -63 542 -149 492 -553 906 -1041 1067 -168 56 -251 68 -488 71
-121 2 -233 1 -250 -1z m460 -713 c249 -63 483 -256 600 -495 69 -140 87 -222
89 -401 1 -169 -12 -245 -67 -380 -83 -204 -274 -401 -480 -495 -127 -57 -216
-74 -387 -74 -169 1 -248 16 -373 71 -203 88 -401 286 -490 490 -91 207 -100
473 -22 696 106 301 389 540 714 602 103 20 309 13 416 -14z"/>
<path d="M4013 4686 c-139 -32 -292 -145 -361 -267 -123 -216 -84 -493 94
-672 290 -291 787 -182 921 204 102 293 -46 611 -333 716 -87 31 -229 40 -321
19z"/>
</g>
</svg>
